<?xml version="1.0" encoding="UTF-8"?><svg id="uuid-c4c4c02f-b1b8-4691-829a-dbb708219cfc" xmlns="http://www.w3.org/2000/svg" width="396.71581" height="175" viewBox="0 0 396.71581 175"><defs><style>.uuid-47a1179c-d0a6-4f21-bdb3-6dbd4757e306{fill:none;}.uuid-5b6746f1-fed4-4428-a76e-2d3220bf9247{fill:#c7c7c7;}.uuid-f3353074-b36f-45ab-be37-a966b2aefde8{fill:#f2f2f2;}.uuid-d48b9f56-ff09-488c-82ad-1fd1eb0b8aa7{fill:#e0e0e0;}.uuid-0f84797c-88a0-4b52-b2e2-2f23a1e58e4c{fill:#e00;}</style></defs><g id="uuid-ca430be5-e00e-4e4d-b15a-1871ddb285f3"><path class="uuid-0f84797c-88a0-4b52-b2e2-2f23a1e58e4c" d="M145.37481,65.48586c5.80236,0,14.19746-1.19665,14.19746-8.09825.01735-.53265-.03094-1.06541-.14378-1.58626l-3.45544-15.00914c-.79777-3.30238-1.49813-4.80051-7.29585-7.69937-4.49904-2.30054-14.2995-6.0992-17.19836-6.0992-2.69942,0-3.48327,3.47863-6.70217,3.47863-3.0983,0-5.39884-2.59738-8.2977-2.59738-2.78291,0-4.59643,1.89701-5.99716,5.79772,0,0-3.90071,11.00175-4.40163,12.59728-.07962.29299-.11403.59643-.10204.89981,0,4.2764,16.83658,18.2976,39.39667,18.2976M160.46279,60.18906c.8024,3.79867.8024,4.19755.8024,4.69847,0,6.49345-7.30049,10.09731-16.89687,10.09731-21.68811.01391-40.68608-12.69469-40.68608-21.09442-.00125-1.16921.2371-2.32627.70036-3.39978-7.80141.38961-17.89872,1.78106-17.89872,10.69563,0,14.60098,34.59615,32.5971,61.98922,32.5971,21.00166,0,26.29846-9.49898,26.29846-16.99891,0-5.89976-5.10199-12.59728-14.2995-16.59539"/><path d="M160.46279,60.18906c.8024,3.79867.8024,4.19755.8024,4.69847,0,6.49345-7.30049,10.09731-16.89687,10.09731-21.68811.01391-40.68608-12.69469-40.68608-21.09442-.00125-1.16921.2371-2.32627.70036-3.39978l1.69757-4.20219c-.07776.28702-.11215.58406-.10204.88125,0,4.2764,16.83658,18.2976,39.39667,18.2976,5.80236,0,14.19746-1.19665,14.19746-8.09825.01735-.53265-.03094-1.06541-.14378-1.58626l1.03431,4.40627Z"/><path d="M355.14558,69.804c0,5.51479,3.31631,8.19566,9.36448,8.19566,1.86215-.04636,3.71269-.30783,5.5148-.77921v-6.39604c-1.15182.36502-2.35388.54658-3.56212.53803-2.4907,0-3.41369-.77921-3.41369-3.12149v-9.80046h7.217v-6.58621h-7.217v-8.34872l-7.8849,1.70685v6.64187h-5.23652v6.58621h5.21795v11.36353ZM330.56325,69.95243c0-1.70685,1.71149-2.53708,4.29496-2.53708,1.57911.00918,3.15158.20535,4.68455.58441v3.3163c-1.51072.82515-3.20921,1.24537-4.93038,1.21984-2.53245,0-4.04912-.97402-4.04912-2.58346M332.9751,78.09706c2.78291,0,5.0278-.58441,7.12423-1.99905v1.56307h7.80142v-16.53974c0-6.28937-4.2393-9.74017-11.31252-9.74017-3.95173,0-7.85707.92764-12.05926,2.82929l2.82928,5.80699c3.0241-1.27086,5.56581-2.05007,7.80606-2.05007,3.24672,0,4.92574,1.26622,4.92574,3.85432v1.26622c-1.91152-.49481-3.87887-.74112-5.85338-.73283-6.63723,0-10.63533,2.78291-10.63533,7.75967,0,4.53614,3.60851,7.99621,9.36448,7.99621M290.09052,77.67499h8.39046v-13.38114h14.04904v13.36722h8.41366v-34.14625h-8.38119v13.1214h-14.04902v-13.1214h-8.39047l-.03247,34.16016ZM258.15205,64.73448c0-3.71054,2.92669-6.53983,6.78101-6.53983,2.00525-.04066,3.95241.67462,5.4545,2.00369v9.02125c-1.46988,1.38881-3.43332,2.13344-5.4545,2.06863-3.80331,0-6.78101-2.82929-6.78101-6.53519M270.49423,77.67963h7.80604v-35.87166l-7.8849,1.70685v9.7077c-2.00723-1.13794-4.27895-1.72667-6.58622-1.70685-7.50921,0-13.41361,5.80236-13.41361,13.2188-.08975,7.23595,5.70337,13.1746,12.93932,13.26436.07769.00096.15539.00123.2331.00082,2.48826.01187,4.91497-.7732,6.92479-2.24024l-.01853,1.92021ZM234.6736,57.83751c2.48606,0,4.58252,1.60945,5.41276,4.09551h-10.76057c.77921-2.56491,2.73188-4.09551,5.34782-4.09551M221.37595,64.79477c0,7.51384,6.14558,13.36722,14.0444,13.36722,4.34133,0,7.51385-1.17346,10.78376-3.90534l-5.22259-4.63818c-1.21984,1.27086-3.02409,1.95267-5.16693,1.95267-2.75826.07769-5.27996-1.54999-6.34502-4.09551h18.39036v-1.96195c0-8.19566-5.51016-14.09542-13.02399-14.09542-7.31764-.11041-13.33927,5.7322-13.44968,13.04984-.00159.10424-.00193.2085-.00103.31275M207.77218,50.68544c2.78291,0,4.34133,1.75323,4.34133,3.85432s-1.55842,3.85432-4.34133,3.85432h-8.2977v-7.70865h8.2977ZM191.07475,77.66108h8.39046v-12.43959h6.38676l6.44243,12.43959h9.39231l-7.51385-13.65943c3.90661-1.5888,6.45499-5.393,6.43779-9.6103,0-6.14558-4.82834-10.87652-12.05926-10.87652h-17.47664v34.14626Z"/></g><path class="uuid-f3353074-b36f-45ab-be37-a966b2aefde8" d="M60.01024.24993v120.27716h336.70557V.24993H60.01024ZM370.25341,93.78337H86.47265V26.99364h283.78076v66.78973Z"/><path class="uuid-d48b9f56-ff09-488c-82ad-1fd1eb0b8aa7" d="M247.85985,107.88031c0-8.19562-5.51001-14.0954-13.02393-14.0954-7.31763-.11041-13.33936,5.73224-13.44971,13.04987-.00146.10425-.00195.2085-.00098.31274l-.00928.01392c0,7.51385,6.14551,13.36719,14.04443,13.36719,4.34131,0,7.51367-1.17346,10.78369-3.90533l-5.22266-4.63818c-1.21973,1.27087-3.02393,1.9527-5.16699,1.9527-2.75806.0777-5.27979-1.54999-6.34497-4.09552h18.39038v-1.96198ZM229.32567,104.29968c.7793-2.56494,2.73193-4.09552,5.3479-4.09552,2.48608,0,4.58252,1.60944,5.41284,4.09552h-10.76074Z"/><path class="uuid-d48b9f56-ff09-488c-82ad-1fd1eb0b8aa7" d="M86.48389,65.46266c0-8.19562-5.51001-14.0954-13.02393-14.0954-7.31763-.11041-13.33936,5.73224-13.44971,13.04987-.00146.10425-.00195.2085-.00098.31274l-.00928.01392c0,7.51385,6.14551,13.36719,14.04443,13.36719,4.34131,0,7.51367-1.17346,10.78369-3.90533l-5.22266-4.63818c-1.21973,1.27087-3.02393,1.9527-5.16699,1.9527-2.75806.0777-5.27979-1.54999-6.34497-4.09552h18.39038v-1.96198ZM67.94971,61.88203c.7793-2.56494,2.73193-4.09552,5.3479-4.09552,2.48608,0,4.58252,1.60944,5.41284,4.09552h-10.76074Z"/><path class="uuid-d48b9f56-ff09-488c-82ad-1fd1eb0b8aa7" d="M247.85985,14.34533c0-8.19562-5.51001-14.0954-13.02393-14.0954-7.31763-.11041-13.33936,5.73224-13.44971,13.04987-.00146.10425-.00195.2085-.00098.31274l-.00928.01392c0,7.51385,6.14551,13.36719,14.04443,13.36719,4.34131,0,7.51367-1.17346,10.78369-3.90533l-5.22266-4.63818c-1.21973,1.27087-3.02393,1.9527-5.16699,1.9527-2.75806.0777-5.27979-1.54999-6.34497-4.09552h18.39038v-1.96198ZM229.32567,10.7647c.7793-2.56494,2.73193-4.09552,5.3479-4.09552,2.48608,0,4.58252,1.60944,5.41284,4.09552h-10.76074Z"/><path class="uuid-5b6746f1-fed4-4428-a76e-2d3220bf9247" d="M61.01076,51.61572h-1c-.1377,0-.25-.11182-.25-.25s.1123-.25.25-.25h1c.1377,0,.25.11182.25.25s-.1123.25-.25.25Z"/><path class="uuid-5b6746f1-fed4-4428-a76e-2d3220bf9247" d="M392.70022,51.61572h-2.01074c-.1377,0-.25-.11182-.25-.25s.1123-.25.25-.25h2.01074c.1377,0,.25.11182.25.25s-.1123.25-.25.25ZM387.67483,51.61572h-2.01074c-.1377,0-.25-.11182-.25-.25s.1123-.25.25-.25h2.01074c.1377,0,.25.11182.25.25s-.1123.25-.25.25ZM382.64846,51.61572h-2.00977c-.1377,0-.25-.11182-.25-.25s.1123-.25.25-.25h2.00977c.1377,0,.25.11182.25.25s-.1123.25-.25.25ZM377.62307,51.61572h-2.00977c-.1377,0-.25-.11182-.25-.25s.1123-.25.25-.25h2.00977c.1377,0,.25.11182.25.25s-.1123.25-.25.25ZM372.59768,51.61572h-2.01074c-.1377,0-.25-.11182-.25-.25s.1123-.25.25-.25h2.01074c.1377,0,.25.11182.25.25s-.1123.25-.25.25ZM367.57229,51.61572h-2.01074c-.1377,0-.25-.11182-.25-.25s.1123-.25.25-.25h2.01074c.1377,0,.25.11182.25.25s-.1123.25-.25.25ZM362.5469,51.61572h-2.01074c-.1377,0-.25-.11182-.25-.25s.1123-.25.25-.25h2.01074c.1377,0,.25.11182.25.25s-.1123.25-.25.25ZM357.52053,51.61572h-2.00977c-.1377,0-.25-.11182-.25-.25s.1123-.25.25-.25h2.00977c.1377,0,.25.11182.25.25s-.1123.25-.25.25ZM352.49514,51.61572h-2.00977c-.1377,0-.25-.11182-.25-.25s.1123-.25.25-.25h2.00977c.1377,0,.25.11182.25.25s-.1123.25-.25.25ZM347.46975,51.61572h-2.01074c-.1377,0-.25-.11182-.25-.25s.1123-.25.25-.25h2.01074c.1377,0,.25.11182.25.25s-.1123.25-.25.25ZM342.44436,51.61572h-2.01074c-.1377,0-.25-.11182-.25-.25s.1123-.25.25-.25h2.01074c.1377,0,.25.11182.25.25s-.1123.25-.25.25ZM337.41799,51.61572h-2.00977c-.1377,0-.25-.11182-.25-.25s.1123-.25.25-.25h2.00977c.1377,0,.25.11182.25.25s-.1123.25-.25.25ZM332.3926,51.61572h-2.00977c-.1377,0-.25-.11182-.25-.25s.1123-.25.25-.25h2.00977c.1377,0,.25.11182.25.25s-.1123.25-.25.25ZM327.36721,51.61572h-2.00977c-.1377,0-.25-.11182-.25-.25s.1123-.25.25-.25h2.00977c.1377,0,.25.11182.25.25s-.1123.25-.25.25ZM322.34182,51.61572h-2.01074c-.1377,0-.25-.11182-.25-.25s.1123-.25.25-.25h2.01074c.1377,0,.25.11182.25.25s-.1123.25-.25.25ZM317.31643,51.61572h-2.01074c-.1377,0-.25-.11182-.25-.25s.1123-.25.25-.25h2.01074c.1377,0,.25.11182.25.25s-.1123.25-.25.25ZM312.29006,51.61572h-2.00977c-.1377,0-.25-.11182-.25-.25s.1123-.25.25-.25h2.00977c.1377,0,.25.11182.25.25s-.1123.25-.25.25ZM307.26467,51.61572h-2.00977c-.1377,0-.25-.11182-.25-.25s.1123-.25.25-.25h2.00977c.1377,0,.25.11182.25.25s-.1123.25-.25.25ZM302.23928,51.61572h-2.01074c-.1377,0-.25-.11182-.25-.25s.1123-.25.25-.25h2.01074c.1377,0,.25.11182.25.25s-.1123.25-.25.25ZM297.21389,51.61572h-2.01074c-.1377,0-.25-.11182-.25-.25s.1123-.25.25-.25h2.01074c.1377,0,.25.11182.25.25s-.1123.25-.25.25ZM292.18752,51.61572h-2.00977c-.1377,0-.25-.11182-.25-.25s.1123-.25.25-.25h2.00977c.1377,0,.25.11182.25.25s-.1123.25-.25.25ZM287.16213,51.61572h-2.00977c-.1377,0-.25-.11182-.25-.25s.1123-.25.25-.25h2.00977c.1377,0,.25.11182.25.25s-.1123.25-.25.25ZM282.13674,51.61572h-2.00977c-.1377,0-.25-.11182-.25-.25s.1123-.25.25-.25h2.00977c.1377,0,.25.11182.25.25s-.1123.25-.25.25ZM277.11135,51.61572h-2.01074c-.1377,0-.25-.11182-.25-.25s.1123-.25.25-.25h2.01074c.1377,0,.25.11182.25.25s-.1123.25-.25.25ZM272.08596,51.61572h-2.01074c-.1377,0-.25-.11182-.25-.25s.1123-.25.25-.25h2.01074c.1377,0,.25.11182.25.25s-.1123.25-.25.25ZM267.05959,51.61572h-2.00977c-.1377,0-.25-.11182-.25-.25s.1123-.25.25-.25h2.00977c.1377,0,.25.11182.25.25s-.1123.25-.25.25ZM262.0342,51.61572h-2.00977c-.1377,0-.25-.11182-.25-.25s.1123-.25.25-.25h2.00977c.1377,0,.25.11182.25.25s-.1123.25-.25.25ZM257.00881,51.61572h-2.01074c-.1377,0-.25-.11182-.25-.25s.1123-.25.25-.25h2.01074c.1377,0,.25.11182.25.25s-.1123.25-.25.25ZM251.98342,51.61572h-2.01074c-.1377,0-.25-.11182-.25-.25s.1123-.25.25-.25h2.01074c.1377,0,.25.11182.25.25s-.1123.25-.25.25ZM246.95803,51.61572h-2.01074c-.1377,0-.25-.11182-.25-.25s.1123-.25.25-.25h2.01074c.1377,0,.25.11182.25.25s-.1123.25-.25.25ZM241.93166,51.61572h-2.00977c-.1377,0-.25-.11182-.25-.25s.1123-.25.25-.25h2.00977c.1377,0,.25.11182.25.25s-.1123.25-.25.25ZM236.90627,51.61572h-2.00977c-.1377,0-.25-.11182-.25-.25s.1123-.25.25-.25h2.00977c.1377,0,.25.11182.25.25s-.1123.25-.25.25ZM231.88088,51.61572h-2.01074c-.1377,0-.25-.11182-.25-.25s.1123-.25.25-.25h2.01074c.1377,0,.25.11182.25.25s-.1123.25-.25.25ZM226.85549,51.61572h-2.01074c-.1377,0-.25-.11182-.25-.25s.1123-.25.25-.25h2.01074c.1377,0,.25.11182.25.25s-.1123.25-.25.25ZM221.82912,51.61572h-2.00977c-.1377,0-.25-.11182-.25-.25s.1123-.25.25-.25h2.00977c.1377,0,.25.11182.25.25s-.1123.25-.25.25ZM216.80373,51.61572h-2.00977c-.1377,0-.25-.11182-.25-.25s.1123-.25.25-.25h2.00977c.1377,0,.25.11182.25.25s-.1123.25-.25.25ZM211.77834,51.61572h-2.00977c-.1377,0-.25-.11182-.25-.25s.1123-.25.25-.25h2.00977c.1377,0,.25.11182.25.25s-.1123.25-.25.25ZM206.75295,51.61572h-2.01074c-.1377,0-.25-.11182-.25-.25s.1123-.25.25-.25h2.01074c.1377,0,.25.11182.25.25s-.1123.25-.25.25ZM201.72756,51.61572h-2.01074c-.1377,0-.25-.11182-.25-.25s.1123-.25.25-.25h2.01074c.1377,0,.25.11182.25.25s-.1123.25-.25.25ZM196.70119,51.61572h-2.00977c-.1377,0-.25-.11182-.25-.25s.1123-.25.25-.25h2.00977c.1377,0,.25.11182.25.25s-.1123.25-.25.25ZM191.6758,51.61572h-2.00977c-.1377,0-.25-.11182-.25-.25s.1123-.25.25-.25h2.00977c.1377,0,.25.11182.25.25s-.1123.25-.25.25ZM186.65041,51.61572h-2.01074c-.1377,0-.25-.11182-.25-.25s.1123-.25.25-.25h2.01074c.1377,0,.25.11182.25.25s-.1123.25-.25.25ZM181.62502,51.61572h-2.01074c-.1377,0-.25-.11182-.25-.25s.1123-.25.25-.25h2.01074c.1377,0,.25.11182.25.25s-.1123.25-.25.25ZM176.59865,51.61572h-2.00977c-.1377,0-.25-.11182-.25-.25s.1123-.25.25-.25h2.00977c.1377,0,.25.11182.25.25s-.1123.25-.25.25ZM171.57326,51.61572h-2.00977c-.1377,0-.25-.11182-.25-.25s.1123-.25.25-.25h2.00977c.1377,0,.25.11182.25.25s-.1123.25-.25.25ZM166.54787,51.61572h-2.01074c-.1377,0-.25-.11182-.25-.25s.1123-.25.25-.25h2.01074c.1377,0,.25.11182.25.25s-.1123.25-.25.25ZM161.52248,51.61572h-2.01074c-.1377,0-.25-.11182-.25-.25s.1123-.25.25-.25h2.01074c.1377,0,.25.11182.25.25s-.1123.25-.25.25ZM156.49709,51.61572h-2.01074c-.1377,0-.25-.11182-.25-.25s.1123-.25.25-.25h2.01074c.1377,0,.25.11182.25.25s-.1123.25-.25.25ZM151.47073,51.61572h-2.00977c-.1377,0-.25-.11182-.25-.25s.1123-.25.25-.25h2.00977c.1377,0,.25.11182.25.25s-.1123.25-.25.25ZM146.44533,51.61572h-2.00977c-.1377,0-.25-.11182-.25-.25s.1123-.25.25-.25h2.00977c.1377,0,.25.11182.25.25s-.1123.25-.25.25ZM141.41994,51.61572h-2.01074c-.1377,0-.25-.11182-.25-.25s.1123-.25.25-.25h2.01074c.1377,0,.25.11182.25.25s-.1123.25-.25.25ZM136.39455,51.61572h-2.01074c-.1377,0-.25-.11182-.25-.25s.1123-.25.25-.25h2.01074c.1377,0,.25.11182.25.25s-.1123.25-.25.25ZM131.36819,51.61572h-2.00977c-.1377,0-.25-.11182-.25-.25s.1123-.25.25-.25h2.00977c.1377,0,.25.11182.25.25s-.1123.25-.25.25ZM126.3428,51.61572h-2.00977c-.1377,0-.25-.11182-.25-.25s.1123-.25.25-.25h2.00977c.1377,0,.25.11182.25.25s-.1123.25-.25.25ZM121.3174,51.61572h-2.01074c-.1377,0-.25-.11182-.25-.25s.1123-.25.25-.25h2.01074c.1377,0,.25.11182.25.25s-.1123.25-.25.25ZM116.29201,51.61572h-2.01074c-.1377,0-.25-.11182-.25-.25s.1123-.25.25-.25h2.01074c.1377,0,.25.11182.25.25s-.1123.25-.25.25ZM111.26662,51.61572h-2.01074c-.1377,0-.25-.11182-.25-.25s.1123-.25.25-.25h2.01074c.1377,0,.25.11182.25.25s-.1123.25-.25.25ZM106.24026,51.61572h-2.00977c-.1377,0-.25-.11182-.25-.25s.1123-.25.25-.25h2.00977c.1377,0,.25.11182.25.25s-.1123.25-.25.25ZM101.21487,51.61572h-2.00977c-.1377,0-.25-.11182-.25-.25s.1123-.25.25-.25h2.00977c.1377,0,.25.11182.25.25s-.1123.25-.25.25ZM96.18948,51.61572h-2.01074c-.1377,0-.25-.11182-.25-.25s.1123-.25.25-.25h2.01074c.1377,0,.25.11182.25.25s-.1123.25-.25.25ZM91.16408,51.61572h-2.01074c-.1377,0-.25-.11182-.25-.25s.1123-.25.25-.25h2.01074c.1377,0,.25.11182.25.25s-.1123.25-.25.25ZM86.13772,51.61572h-2.00977c-.1377,0-.25-.11182-.25-.25s.1123-.25.25-.25h2.00977c.1377,0,.25.11182.25.25s-.1123.25-.25.25ZM81.11233,51.61572h-2.00977c-.1377,0-.25-.11182-.25-.25s.1123-.25.25-.25h2.00977c.1377,0,.25.11182.25.25s-.1123.25-.25.25ZM76.08694,51.61572h-2.01074c-.1377,0-.25-.11182-.25-.25s.1123-.25.25-.25h2.01074c.1377,0,.25.11182.25.25s-.1123.25-.25.25ZM71.06155,51.61572h-2.01074c-.1377,0-.25-.11182-.25-.25s.1123-.25.25-.25h2.01074c.1377,0,.25.11182.25.25s-.1123.25-.25.25ZM66.03518,51.61572h-2.00977c-.1377,0-.25-.11182-.25-.25s.1123-.25.25-.25h2.00977c.1377,0,.25.11182.25.25s-.1123.25-.25.25Z"/><path class="uuid-5b6746f1-fed4-4428-a76e-2d3220bf9247" d="M396.71584,51.61572h-1c-.1377,0-.25-.11182-.25-.25s.1123-.25.25-.25h1c.1377,0,.25.11182.25.25s-.1123.25-.25.25Z"/><path class="uuid-5b6746f1-fed4-4428-a76e-2d3220bf9247" d="M61.01076,78.36133h-1c-.1377,0-.25-.1123-.25-.25s.1123-.25.25-.25h1c.1377,0,.25.1123.25.25s-.1123.25-.25.25Z"/><path class="uuid-5b6746f1-fed4-4428-a76e-2d3220bf9247" d="M392.70022,78.36133h-2.01074c-.1377,0-.25-.1123-.25-.25s.1123-.25.25-.25h2.01074c.1377,0,.25.1123.25.25s-.1123.25-.25.25ZM387.67483,78.36133h-2.01074c-.1377,0-.25-.1123-.25-.25s.1123-.25.25-.25h2.01074c.1377,0,.25.1123.25.25s-.1123.25-.25.25ZM382.64846,78.36133h-2.00977c-.1377,0-.25-.1123-.25-.25s.1123-.25.25-.25h2.00977c.1377,0,.25.1123.25.25s-.1123.25-.25.25ZM377.62307,78.36133h-2.00977c-.1377,0-.25-.1123-.25-.25s.1123-.25.25-.25h2.00977c.1377,0,.25.1123.25.25s-.1123.25-.25.25ZM372.59768,78.36133h-2.01074c-.1377,0-.25-.1123-.25-.25s.1123-.25.25-.25h2.01074c.1377,0,.25.1123.25.25s-.1123.25-.25.25ZM367.57229,78.36133h-2.01074c-.1377,0-.25-.1123-.25-.25s.1123-.25.25-.25h2.01074c.1377,0,.25.1123.25.25s-.1123.25-.25.25ZM362.5469,78.36133h-2.01074c-.1377,0-.25-.1123-.25-.25s.1123-.25.25-.25h2.01074c.1377,0,.25.1123.25.25s-.1123.25-.25.25ZM357.52053,78.36133h-2.00977c-.1377,0-.25-.1123-.25-.25s.1123-.25.25-.25h2.00977c.1377,0,.25.1123.25.25s-.1123.25-.25.25ZM352.49514,78.36133h-2.00977c-.1377,0-.25-.1123-.25-.25s.1123-.25.25-.25h2.00977c.1377,0,.25.1123.25.25s-.1123.25-.25.25ZM347.46975,78.36133h-2.01074c-.1377,0-.25-.1123-.25-.25s.1123-.25.25-.25h2.01074c.1377,0,.25.1123.25.25s-.1123.25-.25.25ZM342.44436,78.36133h-2.01074c-.1377,0-.25-.1123-.25-.25s.1123-.25.25-.25h2.01074c.1377,0,.25.1123.25.25s-.1123.25-.25.25ZM337.41799,78.36133h-2.00977c-.1377,0-.25-.1123-.25-.25s.1123-.25.25-.25h2.00977c.1377,0,.25.1123.25.25s-.1123.25-.25.25ZM332.3926,78.36133h-2.00977c-.1377,0-.25-.1123-.25-.25s.1123-.25.25-.25h2.00977c.1377,0,.25.1123.25.25s-.1123.25-.25.25ZM327.36721,78.36133h-2.00977c-.1377,0-.25-.1123-.25-.25s.1123-.25.25-.25h2.00977c.1377,0,.25.1123.25.25s-.1123.25-.25.25ZM322.34182,78.36133h-2.01074c-.1377,0-.25-.1123-.25-.25s.1123-.25.25-.25h2.01074c.1377,0,.25.1123.25.25s-.1123.25-.25.25ZM317.31643,78.36133h-2.01074c-.1377,0-.25-.1123-.25-.25s.1123-.25.25-.25h2.01074c.1377,0,.25.1123.25.25s-.1123.25-.25.25ZM312.29006,78.36133h-2.00977c-.1377,0-.25-.1123-.25-.25s.1123-.25.25-.25h2.00977c.1377,0,.25.1123.25.25s-.1123.25-.25.25ZM307.26467,78.36133h-2.00977c-.1377,0-.25-.1123-.25-.25s.1123-.25.25-.25h2.00977c.1377,0,.25.1123.25.25s-.1123.25-.25.25ZM302.23928,78.36133h-2.01074c-.1377,0-.25-.1123-.25-.25s.1123-.25.25-.25h2.01074c.1377,0,.25.1123.25.25s-.1123.25-.25.25ZM297.21389,78.36133h-2.01074c-.1377,0-.25-.1123-.25-.25s.1123-.25.25-.25h2.01074c.1377,0,.25.1123.25.25s-.1123.25-.25.25ZM292.18752,78.36133h-2.00977c-.1377,0-.25-.1123-.25-.25s.1123-.25.25-.25h2.00977c.1377,0,.25.1123.25.25s-.1123.25-.25.25ZM287.16213,78.36133h-2.00977c-.1377,0-.25-.1123-.25-.25s.1123-.25.25-.25h2.00977c.1377,0,.25.1123.25.25s-.1123.25-.25.25ZM282.13674,78.36133h-2.00977c-.1377,0-.25-.1123-.25-.25s.1123-.25.25-.25h2.00977c.1377,0,.25.1123.25.25s-.1123.25-.25.25ZM277.11135,78.36133h-2.01074c-.1377,0-.25-.1123-.25-.25s.1123-.25.25-.25h2.01074c.1377,0,.25.1123.25.25s-.1123.25-.25.25ZM272.08596,78.36133h-2.01074c-.1377,0-.25-.1123-.25-.25s.1123-.25.25-.25h2.01074c.1377,0,.25.1123.25.25s-.1123.25-.25.25ZM267.05959,78.36133h-2.00977c-.1377,0-.25-.1123-.25-.25s.1123-.25.25-.25h2.00977c.1377,0,.25.1123.25.25s-.1123.25-.25.25ZM262.0342,78.36133h-2.00977c-.1377,0-.25-.1123-.25-.25s.1123-.25.25-.25h2.00977c.1377,0,.25.1123.25.25s-.1123.25-.25.25ZM257.00881,78.36133h-2.01074c-.1377,0-.25-.1123-.25-.25s.1123-.25.25-.25h2.01074c.1377,0,.25.1123.25.25s-.1123.25-.25.25ZM251.98342,78.36133h-2.01074c-.1377,0-.25-.1123-.25-.25s.1123-.25.25-.25h2.01074c.1377,0,.25.1123.25.25s-.1123.25-.25.25ZM246.95803,78.36133h-2.01074c-.1377,0-.25-.1123-.25-.25s.1123-.25.25-.25h2.01074c.1377,0,.25.1123.25.25s-.1123.25-.25.25ZM241.93166,78.36133h-2.00977c-.1377,0-.25-.1123-.25-.25s.1123-.25.25-.25h2.00977c.1377,0,.25.1123.25.25s-.1123.25-.25.25ZM236.90627,78.36133h-2.00977c-.1377,0-.25-.1123-.25-.25s.1123-.25.25-.25h2.00977c.1377,0,.25.1123.25.25s-.1123.25-.25.25ZM231.88088,78.36133h-2.01074c-.1377,0-.25-.1123-.25-.25s.1123-.25.25-.25h2.01074c.1377,0,.25.1123.25.25s-.1123.25-.25.25ZM226.85549,78.36133h-2.01074c-.1377,0-.25-.1123-.25-.25s.1123-.25.25-.25h2.01074c.1377,0,.25.1123.25.25s-.1123.25-.25.25ZM221.82912,78.36133h-2.00977c-.1377,0-.25-.1123-.25-.25s.1123-.25.25-.25h2.00977c.1377,0,.25.1123.25.25s-.1123.25-.25.25ZM216.80373,78.36133h-2.00977c-.1377,0-.25-.1123-.25-.25s.1123-.25.25-.25h2.00977c.1377,0,.25.1123.25.25s-.1123.25-.25.25ZM211.77834,78.36133h-2.00977c-.1377,0-.25-.1123-.25-.25s.1123-.25.25-.25h2.00977c.1377,0,.25.1123.25.25s-.1123.25-.25.25ZM206.75295,78.36133h-2.01074c-.1377,0-.25-.1123-.25-.25s.1123-.25.25-.25h2.01074c.1377,0,.25.1123.25.25s-.1123.25-.25.25ZM201.72756,78.36133h-2.01074c-.1377,0-.25-.1123-.25-.25s.1123-.25.25-.25h2.01074c.1377,0,.25.1123.25.25s-.1123.25-.25.25ZM196.70119,78.36133h-2.00977c-.1377,0-.25-.1123-.25-.25s.1123-.25.25-.25h2.00977c.1377,0,.25.1123.25.25s-.1123.25-.25.25ZM191.6758,78.36133h-2.00977c-.1377,0-.25-.1123-.25-.25s.1123-.25.25-.25h2.00977c.1377,0,.25.1123.25.25s-.1123.25-.25.25ZM186.65041,78.36133h-2.01074c-.1377,0-.25-.1123-.25-.25s.1123-.25.25-.25h2.01074c.1377,0,.25.1123.25.25s-.1123.25-.25.25ZM181.62502,78.36133h-2.01074c-.1377,0-.25-.1123-.25-.25s.1123-.25.25-.25h2.01074c.1377,0,.25.1123.25.25s-.1123.25-.25.25ZM176.59865,78.36133h-2.00977c-.1377,0-.25-.1123-.25-.25s.1123-.25.25-.25h2.00977c.1377,0,.25.1123.25.25s-.1123.25-.25.25ZM171.57326,78.36133h-2.00977c-.1377,0-.25-.1123-.25-.25s.1123-.25.25-.25h2.00977c.1377,0,.25.1123.25.25s-.1123.25-.25.25ZM166.54787,78.36133h-2.01074c-.1377,0-.25-.1123-.25-.25s.1123-.25.25-.25h2.01074c.1377,0,.25.1123.25.25s-.1123.25-.25.25ZM161.52248,78.36133h-2.01074c-.1377,0-.25-.1123-.25-.25s.1123-.25.25-.25h2.01074c.1377,0,.25.1123.25.25s-.1123.25-.25.25ZM156.49709,78.36133h-2.01074c-.1377,0-.25-.1123-.25-.25s.1123-.25.25-.25h2.01074c.1377,0,.25.1123.25.25s-.1123.25-.25.25ZM151.47073,78.36133h-2.00977c-.1377,0-.25-.1123-.25-.25s.1123-.25.25-.25h2.00977c.1377,0,.25.1123.25.25s-.1123.25-.25.25ZM146.44533,78.36133h-2.00977c-.1377,0-.25-.1123-.25-.25s.1123-.25.25-.25h2.00977c.1377,0,.25.1123.25.25s-.1123.25-.25.25ZM141.41994,78.36133h-2.01074c-.1377,0-.25-.1123-.25-.25s.1123-.25.25-.25h2.01074c.1377,0,.25.1123.25.25s-.1123.25-.25.25ZM136.39455,78.36133h-2.01074c-.1377,0-.25-.1123-.25-.25s.1123-.25.25-.25h2.01074c.1377,0,.25.1123.25.25s-.1123.25-.25.25ZM131.36819,78.36133h-2.00977c-.1377,0-.25-.1123-.25-.25s.1123-.25.25-.25h2.00977c.1377,0,.25.1123.25.25s-.1123.25-.25.25ZM126.3428,78.36133h-2.00977c-.1377,0-.25-.1123-.25-.25s.1123-.25.25-.25h2.00977c.1377,0,.25.1123.25.25s-.1123.25-.25.25ZM121.3174,78.36133h-2.01074c-.1377,0-.25-.1123-.25-.25s.1123-.25.25-.25h2.01074c.1377,0,.25.1123.25.25s-.1123.25-.25.25ZM116.29201,78.36133h-2.01074c-.1377,0-.25-.1123-.25-.25s.1123-.25.25-.25h2.01074c.1377,0,.25.1123.25.25s-.1123.25-.25.25ZM111.26662,78.36133h-2.01074c-.1377,0-.25-.1123-.25-.25s.1123-.25.25-.25h2.01074c.1377,0,.25.1123.25.25s-.1123.25-.25.25ZM106.24026,78.36133h-2.00977c-.1377,0-.25-.1123-.25-.25s.1123-.25.25-.25h2.00977c.1377,0,.25.1123.25.25s-.1123.25-.25.25ZM101.21487,78.36133h-2.00977c-.1377,0-.25-.1123-.25-.25s.1123-.25.25-.25h2.00977c.1377,0,.25.1123.25.25s-.1123.25-.25.25ZM96.18948,78.36133h-2.01074c-.1377,0-.25-.1123-.25-.25s.1123-.25.25-.25h2.01074c.1377,0,.25.1123.25.25s-.1123.25-.25.25ZM91.16408,78.36133h-2.01074c-.1377,0-.25-.1123-.25-.25s.1123-.25.25-.25h2.01074c.1377,0,.25.1123.25.25s-.1123.25-.25.25ZM86.13772,78.36133h-2.00977c-.1377,0-.25-.1123-.25-.25s.1123-.25.25-.25h2.00977c.1377,0,.25.1123.25.25s-.1123.25-.25.25ZM81.11233,78.36133h-2.00977c-.1377,0-.25-.1123-.25-.25s.1123-.25.25-.25h2.00977c.1377,0,.25.1123.25.25s-.1123.25-.25.25ZM76.08694,78.36133h-2.01074c-.1377,0-.25-.1123-.25-.25s.1123-.25.25-.25h2.01074c.1377,0,.25.1123.25.25s-.1123.25-.25.25ZM71.06155,78.36133h-2.01074c-.1377,0-.25-.1123-.25-.25s.1123-.25.25-.25h2.01074c.1377,0,.25.1123.25.25s-.1123.25-.25.25ZM66.03518,78.36133h-2.00977c-.1377,0-.25-.1123-.25-.25s.1123-.25.25-.25h2.00977c.1377,0,.25.1123.25.25s-.1123.25-.25.25Z"/><path class="uuid-5b6746f1-fed4-4428-a76e-2d3220bf9247" d="M396.71584,78.36133h-1c-.1377,0-.25-.1123-.25-.25s.1123-.25.25-.25h1c.1377,0,.25.1123.25.25s-.1123.25-.25.25Z"/><path class="uuid-5b6746f1-fed4-4428-a76e-2d3220bf9247" d="M221.376,1.5c-.1377,0-.25-.11182-.25-.25V.25c0-.13818.1123-.25.25-.25s.25.11182.25.25v1c0,.13818-.1123.25-.25.25Z"/><path class="uuid-5b6746f1-fed4-4428-a76e-2d3220bf9247" d="M221.376,116.77148c-.1377,0-.25-.1123-.25-.25v-2.00488c0-.1377.1123-.25.25-.25s.25.1123.25.25v2.00488c0,.1377-.1123.25-.25.25ZM221.376,111.75977c-.1377,0-.25-.1123-.25-.25v-2.00488c0-.1377.1123-.25.25-.25s.25.1123.25.25v2.00488c0,.1377-.1123.25-.25.25ZM221.376,106.74805c-.1377,0-.25-.1123-.25-.25v-2.00488c0-.1377.1123-.25.25-.25s.25.1123.25.25v2.00488c0,.1377-.1123.25-.25.25ZM221.376,101.73633c-.1377,0-.25-.1123-.25-.25v-2.00488c0-.1377.1123-.25.25-.25s.25.1123.25.25v2.00488c0,.1377-.1123.25-.25.25ZM221.376,96.72363c-.1377,0-.25-.1123-.25-.25v-2.00391c0-.1377.1123-.25.25-.25s.25.1123.25.25v2.00391c0,.1377-.1123.25-.25.25ZM221.376,91.71191c-.1377,0-.25-.1123-.25-.25v-2.00391c0-.1377.1123-.25.25-.25s.25.1123.25.25v2.00391c0,.1377-.1123.25-.25.25ZM221.376,86.7002c-.1377,0-.25-.1123-.25-.25v-2.00488c0-.1377.1123-.25.25-.25s.25.1123.25.25v2.00488c0,.1377-.1123.25-.25.25ZM221.376,81.68848c-.1377,0-.25-.1123-.25-.25v-2.00488c0-.1377.1123-.25.25-.25s.25.1123.25.25v2.00488c0,.1377-.1123.25-.25.25ZM221.376,76.67676c-.1377,0-.25-.1123-.25-.25v-2.00488c0-.1377.1123-.25.25-.25s.25.1123.25.25v2.00488c0,.1377-.1123.25-.25.25ZM221.376,71.66504c-.1377,0-.25-.1123-.25-.25v-2.00488c0-.13818.1123-.25.25-.25s.25.11182.25.25v2.00488c0,.1377-.1123.25-.25.25ZM221.376,66.65332c-.1377,0-.25-.11182-.25-.25v-2.00488c0-.13818.1123-.25.25-.25s.25.11182.25.25v2.00488c0,.13818-.1123.25-.25.25ZM221.376,61.6416c-.1377,0-.25-.11182-.25-.25v-2.00488c0-.13818.1123-.25.25-.25s.25.11182.25.25v2.00488c0,.13818-.1123.25-.25.25ZM221.376,56.62988c-.1377,0-.25-.11182-.25-.25v-2.00488c0-.13818.1123-.25.25-.25s.25.11182.25.25v2.00488c0,.13818-.1123.25-.25.25ZM221.376,51.61768c-.1377,0-.25-.11182-.25-.25v-2.00439c0-.13818.1123-.25.25-.25s.25.11182.25.25v2.00439c0,.13818-.1123.25-.25.25ZM221.376,46.60596c-.1377,0-.25-.11182-.25-.25v-2.00488c0-.13818.1123-.25.25-.25s.25.11182.25.25v2.00488c0,.13818-.1123.25-.25.25ZM221.376,41.59424c-.1377,0-.25-.11182-.25-.25v-2.00488c0-.13818.1123-.25.25-.25s.25.11182.25.25v2.00488c0,.13818-.1123.25-.25.25ZM221.376,36.58252c-.1377,0-.25-.11182-.25-.25v-2.00488c0-.13818.1123-.25.25-.25s.25.11182.25.25v2.00488c0,.13818-.1123.25-.25.25ZM221.376,31.5708c-.1377,0-.25-.11182-.25-.25v-2.00488c0-.13818.1123-.25.25-.25s.25.11182.25.25v2.00488c0,.13818-.1123.25-.25.25ZM221.376,26.55859c-.1377,0-.25-.11182-.25-.25v-2.00439c0-.13818.1123-.25.25-.25s.25.11182.25.25v2.00439c0,.13818-.1123.25-.25.25ZM221.376,21.54688c-.1377,0-.25-.11182-.25-.25v-2.00439c0-.13818.1123-.25.25-.25s.25.11182.25.25v2.00439c0,.13818-.1123.25-.25.25ZM221.376,16.53516c-.1377,0-.25-.11182-.25-.25v-2.00488c0-.13818.1123-.25.25-.25s.25.11182.25.25v2.00488c0,.13818-.1123.25-.25.25ZM221.376,11.52344c-.1377,0-.25-.11182-.25-.25v-2.00488c0-.13818.1123-.25.25-.25s.25.11182.25.25v2.00488c0,.13818-.1123.25-.25.25ZM221.376,6.51172c-.1377,0-.25-.11182-.25-.25v-2.00488c0-.13818.1123-.25.25-.25s.25.11182.25.25v2.00488c0,.13818-.1123.25-.25.25Z"/><path class="uuid-5b6746f1-fed4-4428-a76e-2d3220bf9247" d="M221.376,120.77832c-.1377,0-.25-.1123-.25-.25v-1c0-.1377.1123-.25.25-.25s.25.1123.25.25v1c0,.1377-.1123.25-.25.25Z"/><path class="uuid-5b6746f1-fed4-4428-a76e-2d3220bf9247" d="M247.86037,1.5c-.1377,0-.25-.11182-.25-.25V.25c0-.13818.1123-.25.25-.25s.25.11182.25.25v1c0,.13818-.1123.25-.25.25Z"/><path class="uuid-5b6746f1-fed4-4428-a76e-2d3220bf9247" d="M247.86037,116.77148c-.1377,0-.25-.1123-.25-.25v-2.00488c0-.1377.1123-.25.25-.25s.25.1123.25.25v2.00488c0,.1377-.1123.25-.25.25ZM247.86037,111.75977c-.1377,0-.25-.1123-.25-.25v-2.00488c0-.1377.1123-.25.25-.25s.25.1123.25.25v2.00488c0,.1377-.1123.25-.25.25ZM247.86037,106.74805c-.1377,0-.25-.1123-.25-.25v-2.00488c0-.1377.1123-.25.25-.25s.25.1123.25.25v2.00488c0,.1377-.1123.25-.25.25ZM247.86037,101.73633c-.1377,0-.25-.1123-.25-.25v-2.00488c0-.1377.1123-.25.25-.25s.25.1123.25.25v2.00488c0,.1377-.1123.25-.25.25ZM247.86037,96.72363c-.1377,0-.25-.1123-.25-.25v-2.00391c0-.1377.1123-.25.25-.25s.25.1123.25.25v2.00391c0,.1377-.1123.25-.25.25ZM247.86037,91.71191c-.1377,0-.25-.1123-.25-.25v-2.00391c0-.1377.1123-.25.25-.25s.25.1123.25.25v2.00391c0,.1377-.1123.25-.25.25ZM247.86037,86.7002c-.1377,0-.25-.1123-.25-.25v-2.00488c0-.1377.1123-.25.25-.25s.25.1123.25.25v2.00488c0,.1377-.1123.25-.25.25ZM247.86037,81.68848c-.1377,0-.25-.1123-.25-.25v-2.00488c0-.1377.1123-.25.25-.25s.25.1123.25.25v2.00488c0,.1377-.1123.25-.25.25ZM247.86037,76.67676c-.1377,0-.25-.1123-.25-.25v-2.00488c0-.1377.1123-.25.25-.25s.25.1123.25.25v2.00488c0,.1377-.1123.25-.25.25ZM247.86037,71.66504c-.1377,0-.25-.1123-.25-.25v-2.00488c0-.13818.1123-.25.25-.25s.25.11182.25.25v2.00488c0,.1377-.1123.25-.25.25ZM247.86037,66.65332c-.1377,0-.25-.11182-.25-.25v-2.00488c0-.13818.1123-.25.25-.25s.25.11182.25.25v2.00488c0,.13818-.1123.25-.25.25ZM247.86037,61.6416c-.1377,0-.25-.11182-.25-.25v-2.00488c0-.13818.1123-.25.25-.25s.25.11182.25.25v2.00488c0,.13818-.1123.25-.25.25ZM247.86037,56.62988c-.1377,0-.25-.11182-.25-.25v-2.00488c0-.13818.1123-.25.25-.25s.25.11182.25.25v2.00488c0,.13818-.1123.25-.25.25ZM247.86037,51.61768c-.1377,0-.25-.11182-.25-.25v-2.00439c0-.13818.1123-.25.25-.25s.25.11182.25.25v2.00439c0,.13818-.1123.25-.25.25ZM247.86037,46.60596c-.1377,0-.25-.11182-.25-.25v-2.00488c0-.13818.1123-.25.25-.25s.25.11182.25.25v2.00488c0,.13818-.1123.25-.25.25ZM247.86037,41.59424c-.1377,0-.25-.11182-.25-.25v-2.00488c0-.13818.1123-.25.25-.25s.25.11182.25.25v2.00488c0,.13818-.1123.25-.25.25ZM247.86037,36.58252c-.1377,0-.25-.11182-.25-.25v-2.00488c0-.13818.1123-.25.25-.25s.25.11182.25.25v2.00488c0,.13818-.1123.25-.25.25ZM247.86037,31.5708c-.1377,0-.25-.11182-.25-.25v-2.00488c0-.13818.1123-.25.25-.25s.25.11182.25.25v2.00488c0,.13818-.1123.25-.25.25ZM247.86037,26.55859c-.1377,0-.25-.11182-.25-.25v-2.00439c0-.13818.1123-.25.25-.25s.25.11182.25.25v2.00439c0,.13818-.1123.25-.25.25ZM247.86037,21.54688c-.1377,0-.25-.11182-.25-.25v-2.00439c0-.13818.1123-.25.25-.25s.25.11182.25.25v2.00439c0,.13818-.1123.25-.25.25ZM247.86037,16.53516c-.1377,0-.25-.11182-.25-.25v-2.00488c0-.13818.1123-.25.25-.25s.25.11182.25.25v2.00488c0,.13818-.1123.25-.25.25ZM247.86037,11.52344c-.1377,0-.25-.11182-.25-.25v-2.00488c0-.13818.1123-.25.25-.25s.25.11182.25.25v2.00488c0,.13818-.1123.25-.25.25ZM247.86037,6.51172c-.1377,0-.25-.11182-.25-.25v-2.00488c0-.13818.1123-.25.25-.25s.25.11182.25.25v2.00488c0,.13818-.1123.25-.25.25Z"/><path class="uuid-5b6746f1-fed4-4428-a76e-2d3220bf9247" d="M247.86037,120.77832c-.1377,0-.25-.1123-.25-.25v-1c0-.1377.1123-.25.25-.25s.25.1123.25.25v1c0,.1377-.1123.25-.25.25Z"/><rect class="uuid-47a1179c-d0a6-4f21-bdb3-6dbd4757e306" y=".16516" width="60" height="175"/><rect class="uuid-47a1179c-d0a6-4f21-bdb3-6dbd4757e306" y=".16516" width="60" height="175"/></svg>